<svg id="Layer_1" data-name="Layer 1" xmlns="http://www.w3.org/2000/svg" viewBox="0 0 440.36 661.36"><defs><style>.cls-1{fill:#e8e1d4;}</style></defs><path class="cls-1" d="M390.32,337.85a108.12,108.12,0,1,1,0-216.23Z" transform="translate(-179.82 -69.32)"/><path class="cls-1" d="M479.37,367.89a108.11,108.11,0,0,0-68.84-100.73V468.61A108.11,108.11,0,0,0,479.37,367.89Z" transform="translate(-179.82 -69.32)"/><path class="cls-1" d="M410.68,210.7a70.69,70.69,0,1,0,0-141.38Z" transform="translate(-179.82 -69.32)"/><path class="cls-1" d="M340.23,457.85a92.14,92.14,0,0,0,50,82V375.89A92.14,92.14,0,0,0,340.23,457.85Z" transform="translate(-179.82 -69.32)"/><path class="cls-1" d="M179.82,672.22c0-35.83,21.09-58.62,54.58-58.62,23.73,0,42.18,14.89,47.14,38.3l-12.25,3c-3.25-18.3-16.9-29.77-34.89-29.77-25.58,0-41.71,18.29-41.71,47.14.16,28.68,17.68,47,45.13,47,21.86,0,37.83-14,41.09-35.82l12.4,3.1c-4.18,27-25,44.2-53.49,44.2C202.3,730.68,179.82,707.88,179.82,672.22Z" transform="translate(-179.82 -69.32)"/><path class="cls-1" d="M299.06,687.72c0-25.58,16.59-42.33,41.71-42.33,25.28,0,41.87,16.75,41.87,42.33s-16.59,42.18-41.87,42.18C315.65,729.9,299.06,713.16,299.06,687.72Zm71.64,0c0-19.07-11.79-31.48-29.93-31.48s-29.93,12.41-29.93,31.48,11.79,31.48,29.93,31.48S370.7,706.8,370.7,687.72Z" transform="translate(-179.82 -69.32)"/><path class="cls-1" d="M393.49,624.61c0-5.12,3.41-8.53,8.68-8.53,5.12,0,8.84,3.41,8.84,8.53s-3.72,8.68-8.84,8.68C396.9,633.29,393.49,629.88,393.49,624.61Zm2.63,23.88h11.79V726.8H396.12Z" transform="translate(-179.82 -69.32)"/><path class="cls-1" d="M425,612.82h11.79v114H425Z" transform="translate(-179.82 -69.32)"/><path class="cls-1" d="M449.15,686.79c0-24,16.75-41.4,40-41.4,22.95,0,38,17.37,38.3,41.56,0,1.39,0,3.1-.16,4.65H461.4c1.7,16.28,14.26,27.6,31.17,27.6,12.25,0,22.64-6.36,27-14.88l10.23,4.18c-5.11,12.56-19.84,21.4-37.37,21.4C467.45,729.9,449.15,711.76,449.15,686.79Zm65.75-5.58c-1.55-16-11.63-25-25.9-25-14.58,0-25.28,10.08-27.45,25Z" transform="translate(-179.82 -69.32)"/><path class="cls-1" d="M538.15,687.72c0-24.5,16.75-42.33,39.7-42.33a35,35,0,0,1,30.24,16.28h.15V612.82h11.94v114H609.79l-1.08-13.49h-.16A35.39,35.39,0,0,1,578,729.9C555.05,729.9,538.15,712.07,538.15,687.72Zm70.56,0c0-17.83-12.41-31.48-29.31-31.48-17.06,0-29.47,13.65-29.47,31.48,0,18,12.57,31.48,29.47,31.48S608.71,705.4,608.71,687.72Z" transform="translate(-179.82 -69.32)"/></svg>