<svg id="Layer_1" data-name="Layer 1" xmlns="http://www.w3.org/2000/svg" viewBox="0 0 686 516"><defs><style>.cls-1{fill:#413f3b;}</style></defs><path class="cls-1" d="M120.14,294.36A118,118,0,1,1,118,58.27c.72,0,1.44,0,2.17,0Z"/><path class="cls-1" d="M217.37,327.16a118.09,118.09,0,0,0-75.17-110v220A118.08,118.08,0,0,0,217.37,327.16Z"/><path class="cls-1" d="M142.37,155.53a77.2,77.2,0,0,0,0-154.38Z"/><path class="cls-1" d="M65.45,425.39a100.59,100.59,0,0,0,54.62,89.46v-179A100.61,100.61,0,0,0,65.45,425.39Z"/><path class="cls-1" d="M315.35,248c0-30.07,17.71-49.21,45.81-49.21,19.88,0,35.41,12.5,39.57,32.15l-10.27,2.47c-2.74-15.35-14.2-25-29.3-25-21.47,0-35,15.35-35,39.57S341,287.51,364,287.51c18.36,0,31.8-11.71,34.5-30.06l10.4,2.59c-3.5,22.66-20.95,37.1-44.9,37.1C334.23,297.1,315.35,278,315.35,248Z"/><path class="cls-1" d="M415.43,261.05c0-21.48,13.91-35.54,35-35.54s35.15,14.06,35.15,35.54-13.92,35.4-35.14,35.4S415.43,282.4,415.43,261.05Zm60.13,0c0-16-9.94-26.42-25.13-26.42s-25.06,10.4-25.06,26.42,9.93,26.42,25.11,26.42,25.09-10.41,25.09-26.42Z"/><path class="cls-1" d="M494.69,208.07c0-4.3,2.87-7.16,7.29-7.16s7.43,2.86,7.43,7.16a7.09,7.09,0,0,1-7.43,7.29A6.9,6.9,0,0,1,494.69,208.07Zm2.24,20.05h9.89v65.73h-9.89Z"/><path class="cls-1" d="M521.11,198.18H531v95.67h-9.89Z"/><path class="cls-1" d="M541.41,260.27c0-20.18,14.07-34.79,33.59-34.79,19.26,0,31.88,14.58,32.14,34.89,0,1.16,0,2.6-.13,3.91H551.7c1.43,13.66,11.93,23.16,26.16,23.16,10.28,0,19-5.34,22.64-12.5l8.6,3.52c-4.29,10.58-16.66,18-31.37,18C556.78,296.45,541.41,281.22,541.41,260.27Zm55.2-4.69c-1.31-13.41-9.76-21-21.74-21-12.24,0-21.22,8.46-23,21Z"/><path class="cls-1" d="M616.12,261.05c0-20.57,14-35.54,33.32-35.54a29.33,29.33,0,0,1,25.41,13.67H675v-41h10v95.67h-8.72l-.94-11.31h-.13a29.72,29.72,0,0,1-25.65,13.91C630.31,296.45,616.12,281.48,616.12,261.05Zm59.22,0c0-15-10.41-26.42-24.6-26.42S626,246.08,626,261.05s10.54,26.46,24.73,26.46S675.34,275.89,675.34,261.05Z"/></svg>