<svg id="Layer_1" data-name="Layer 1" xmlns="http://www.w3.org/2000/svg" viewBox="0 0 545 262"><defs><style>.cls-1{fill:#413f3b;}</style></defs><path class="cls-1" d="M61.12,149.35A59.58,59.58,0,1,1,60,30.2h1.09Z"/><path class="cls-1" d="M110.19,165.9a59.57,59.57,0,0,0-37.93-55.5v111A59.57,59.57,0,0,0,110.19,165.9Z"/><path class="cls-1" d="M72.34,79.29a39,39,0,0,0,0-77.91Z"/><path class="cls-1" d="M33.52,215.47a50.78,50.78,0,0,0,27.57,45.15V170.31A50.77,50.77,0,0,0,33.52,215.47Z"/><path class="cls-1" d="M172,121c0-30.26,17.82-49.52,46.11-49.52,20,0,35.64,12.58,39.83,32.35l-10.35,2.49c-2.75-15.45-14.28-25.15-29.48-25.15-21.61,0-35.23,15.46-35.23,39.83s14.93,39.73,38.11,39.73c18.48,0,32-11.79,34.73-30.26l10.47,2.62c-3.53,22.8-21.09,37.33-45.2,37.33C191,170.35,172,151.1,172,121Z"/><path class="cls-1" d="M272.67,134.07c0-21.62,14-35.77,35.24-35.77s35.37,14.15,35.37,35.77-14,35.63-35.36,35.63S272.67,155.56,272.67,134.07Zm60.53,0c0-16.12-10-26.59-25.29-26.59S282.68,118,282.68,134.07s10,26.59,25.28,26.59,25.25-10.48,25.25-26.59Z"/><path class="cls-1" d="M352.46,80.74c0-4.32,2.88-7.2,7.33-7.2s7.47,2.88,7.47,7.2a7.13,7.13,0,0,1-7.47,7.35A6.94,6.94,0,0,1,352.46,80.74Zm2.25,20.18h10v66.16h-10Z"/><path class="cls-1" d="M379.05,70.79H389v96.29h-9.95Z"/><path class="cls-1" d="M399.48,133.29c0-20.31,14.15-35,33.8-35,19.39,0,32.1,14.68,32.36,35.12,0,1.17,0,2.62-.13,3.93H409.83c1.44,13.75,12,23.31,26.33,23.31,10.35,0,19.13-5.37,22.79-12.58l8.66,3.54c-4.32,10.65-16.77,18.11-31.58,18.11C415,169.7,399.48,154.37,399.48,133.29ZM455,128.56c-1.31-13.49-9.82-21.08-21.88-21.08-12.31,0-21.36,8.51-23.19,21.08Z"/><path class="cls-1" d="M474.67,134.07c0-20.7,14.15-35.77,33.53-35.77a29.57,29.57,0,0,1,25.59,13.76h.13V70.79H544v96.29h-8.77l-1-11.38h-.13a29.92,29.92,0,0,1-25.82,14C489,169.7,474.67,154.64,474.67,134.07Zm59.61,0c0-15.07-10.48-26.59-24.76-26.59s-24.9,11.52-24.9,26.59,10.62,26.63,24.9,26.63S534.28,149,534.28,134.07Z"/></svg>