<svg id="Layer_1" data-name="Layer 1" xmlns="http://www.w3.org/2000/svg" viewBox="0 0 442 663"><defs><style>.cls-1{fill:#d2d0cc;}</style></defs><path class="cls-1" d="M211.33,269.37a108,108,0,0,1-2.08-216.06h2.08Z"/><path class="cls-1" d="M300.31,299.38a108,108,0,0,0-68.79-100.65V400A108,108,0,0,0,300.31,299.38Z"/><path class="cls-1" d="M231.67,142.32a70.63,70.63,0,1,0,0-141.26h0Z"/><path class="cls-1" d="M161.28,389.27a92.07,92.07,0,0,0,50,81.93V307.37A92.08,92.08,0,0,0,161.28,389.27Z"/><path class="cls-1" d="M1,603.46c0-35.8,21.07-58.57,54.54-58.57,23.71,0,42.14,14.88,47.1,38.27l-12.24,3c-3.25-18.29-16.89-29.75-34.86-29.75-25.56,0-41.68,18.28-41.68,47.1.16,28.66,17.67,47,45.09,47,21.84,0,37.8-14,41.06-35.79l12.39,3.1c-4.18,27-25,44.16-53.45,44.16C23.46,661.87,1,639.09,1,603.46Z"/><path class="cls-1" d="M120.14,619c0-25.56,16.58-42.3,41.68-42.3,25.26,0,41.83,16.74,41.83,42.3s-16.57,42.15-41.83,42.15C136.72,661.1,120.14,644.37,120.14,619Zm71.58,0c0-19.05-11.78-31.45-29.9-31.45S131.91,599.9,131.91,619s11.78,31.45,29.91,31.45S191.72,638,191.72,619Z"/><path class="cls-1" d="M214.5,555.89c0-5.11,3.4-8.52,8.67-8.52,5.11,0,8.83,3.41,8.83,8.52s-3.72,8.67-8.83,8.67C217.9,564.56,214.5,561.16,214.5,555.89Zm2.62,23.86H228.9V658H217.12Z"/><path class="cls-1" d="M246,544.11h11.78V658H246Z"/><path class="cls-1" d="M270.11,618c0-24,16.74-41.37,40-41.37,22.93,0,38,17.36,38.27,41.53,0,1.39,0,3.1-.16,4.65H282.35c1.7,16.26,14.25,27.57,31.14,27.57,12.24,0,22.63-6.35,27-14.86l10.22,4.17c-5.1,12.55-19.82,21.39-37.34,21.39C288.39,661.1,270.11,643,270.11,618Zm65.7-5.57c-1.55-16-11.62-25-25.88-25-14.57,0-25.26,10.07-27.43,25Z"/><path class="cls-1" d="M359,619c0-24.48,16.73-42.3,39.66-42.3a35,35,0,0,1,30.22,16.27h.15V544.11H441V658H430.62l-1.08-13.48h-.16a35.36,35.36,0,0,1-30.53,16.56C375.92,661.1,359,643.28,359,619Zm70.5,0c0-17.82-12.4-31.45-29.29-31.45-17,0-29.44,13.63-29.44,31.45,0,18,12.56,31.45,29.44,31.45S429.54,636.62,429.54,619Z"/></svg>